<?xml version="1.0" encoding="utf-8"?>
<!-- Generated by IcoMoon.io -->
<!DOCTYPE svg PUBLIC "-//W3C//DTD SVG 1.1//EN" "http://www.w3.org/Graphics/SVG/1.1/DTD/svg11.dtd">
<svg version="1.1" xmlns="http://www.w3.org/2000/svg" xmlns:xlink="http://www.w3.org/1999/xlink" width="32" height="32" viewBox="0 0 32 32">
<path d="M16 0c-8.8 0-16 7.2-16 16s7.2 16 16 16c8.8 0 16-7.2 16-16s-7.2-16-16-16zM16 30c-7.8 0-14-6.2-14-14s6.2-14 14-14c7.8 0 14 6.2 14 14s-6.2 14-14 14z"></path>
<path d="M23 16h-7v-11c0-0.6-0.4-1-1-1s-1 0.4-1 1v12c0 0.6 0.4 1 1 1h8c0.6 0 1-0.4 1-1s-0.4-1-1-1z"></path>
</svg>
