<?xml version="1.0" encoding="utf-8"?>
<!-- Generated by IcoMoon.io -->
<!DOCTYPE svg PUBLIC "-//W3C//DTD SVG 1.1//EN" "http://www.w3.org/Graphics/SVG/1.1/DTD/svg11.dtd">
<svg version="1.1" xmlns="http://www.w3.org/2000/svg" xmlns:xlink="http://www.w3.org/1999/xlink" width="32" height="32" viewBox="0 0 32 32">
<path d="M20.324 0c0 0-6.919 0-9.514 0-4.541 0-8.649 3.459-8.649 7.351s2.595 7.135 7.135 7.135c0.216 0 0.649 0 0.865 0-0.216 0.649-0.432 1.081-0.432 1.73 0 1.081 0.649 1.73 1.297 2.378-0.649 0-1.081 0-1.73 0-5.405 0-9.297 1.73-9.297 7.135 0 3.459 4.541 6.054 10.162 6.054 6.27 0 10.162-3.243 10.162-7.135 0-2.811-0.649-4.324-3.676-6.486-0.865-0.432-2.811-1.946-2.811-2.811 0-1.081 0.216-1.514 1.946-2.811s2.811-3.027 2.811-4.973c0-2.162-0.865-4.324-2.595-5.405h2.378l1.946-2.162zM16.649 24.216c0 0.216 0.216 0.649 0.216 0.865 0 2.595-1.73 4.324-6.703 4.324-3.459 0-6.054-1.946-6.054-4.541 0-2.378 2.811-3.676 6.27-3.676 1.297 0 5.189 0 6.27 3.027zM11.027 12.973c-2.378 0-4.757-2.162-5.189-5.405-0.216-3.027 1.946-5.189 4.324-5.189s3.892 2.378 4.324 5.622c0.432 3.027-0.865 4.973-3.459 4.973z"></path>
<path d="M27.459 4.541v-4.541h-1.514v4.541h-4.541v1.513h4.541v4.541h1.514v-4.541h4.541v-1.513z"></path>
</svg>
