<?xml version="1.0" encoding="utf-8"?>
<!-- Generated by IcoMoon.io -->
<!DOCTYPE svg PUBLIC "-//W3C//DTD SVG 1.1//EN" "http://www.w3.org/Graphics/SVG/1.1/DTD/svg11.dtd">
<svg version="1.1" xmlns="http://www.w3.org/2000/svg" xmlns:xlink="http://www.w3.org/1999/xlink" width="22" height="32" viewBox="0 0 22 32">
<path fill="#939598" d="M7.051 14.373c0-1.953-1.573-3.525-3.525-3.525s-3.525 1.573-3.525 3.525 1.573 3.525 3.525 3.525 3.525-1.573 3.525-3.525zM3.525 16.814c-1.356 0-2.441-1.085-2.441-2.441s1.085-2.441 2.441-2.441c1.356 0 2.441 1.085 2.441 2.441s-1.085 2.441-2.441 2.441zM11.119 10.847c-1.953 0-3.525 1.573-3.525 3.525s1.573 3.525 3.525 3.525 3.525-1.573 3.525-3.525-1.573-3.525-3.525-3.525zM11.119 16.814c-1.356 0-2.441-1.085-2.441-2.441s1.085-2.441 2.441-2.441c1.356 0 2.441 1.085 2.441 2.441s-1.085 2.441-2.441 2.441zM11.119 24.949c-1.953 0-3.525 1.573-3.525 3.525s1.573 3.525 3.525 3.525 3.525-1.573 3.525-3.525-1.573-3.525-3.525-3.525zM11.119 30.915c-1.356 0-2.441-1.085-2.441-2.441s1.085-2.441 2.441-2.441c1.356 0 2.441 1.085 2.441 2.441s-1.085 2.441-2.441 2.441zM18.712 10.847c-1.953 0-3.525 1.573-3.525 3.525s1.573 3.525 3.525 3.525 3.525-1.573 3.525-3.525-1.573-3.525-3.525-3.525zM18.712 16.814c-1.356 0-2.441-1.085-2.441-2.441s1.085-2.441 2.441-2.441c1.356 0 2.441 1.085 2.441 2.441s-1.085 2.441-2.441 2.441zM10.847 21.424c0-1.953-1.573-3.525-3.525-3.525s-3.525 1.573-3.525 3.525 1.573 3.525 3.525 3.525 3.525-1.573 3.525-3.525zM7.322 23.864c-1.356 0-2.441-1.085-2.441-2.441s1.085-2.441 2.441-2.441c1.356 0 2.441 1.085 2.441 2.441s-1.085 2.441-2.441 2.441zM14.915 17.898c-1.953 0-3.525 1.573-3.525 3.525s1.573 3.525 3.525 3.525 3.525-1.573 3.525-3.525-1.573-3.525-3.525-3.525zM14.915 23.864c-1.356 0-2.441-1.085-2.441-2.441s1.085-2.441 2.441-2.441c1.356 0 2.441 1.085 2.441 2.441s-1.085 2.441-2.441 2.441zM8.19 10.088c0.054 0 0.054 0 0 0 0.054 0 0.054 0 0 0 0.271 0 0.488 0.054 0.705 0.054 0.434 0 0.759-0.054 0.922-0.054 0.054 0 0.054 0 0.108 0 0.217-0.054 0.38-0.054 0.542-0.108 0.217-0.054 0.38-0.054 0.651-0.054 0.325 0 0.542 0.054 0.814 0.108 0.108 0 0.217 0.054 0.38 0.054 0.325 0.054 0.651 0.108 1.030 0.108 0.271 0 0.542 0 0.868-0.054 0.054 0 0.163 0 0.217-0.054 0.054 0 0.054 0 0.108 0 0 0 0 0 0.054 0 1.030-0.163 2.17-0.651 3.2-1.681 2.224-2.224 1.736-5.153 1.681-5.478-0.054-0.217-0.217-0.38-0.434-0.434-0.108 0-0.488-0.108-1.030-0.108-1.193 0-2.983 0.325-4.447 1.79-1.627 1.627-1.79 3.634-1.736 4.719-0.163-0.054-0.38-0.054-0.651-0.054s-0.488 0.054-0.705 0.054c-0.542-0.597-1.41-2.007-1.41-3.688 0-2.061 1.302-3.417 1.898-3.905 0.488 0.434 1.085 1.030 1.464 1.898 0.108 0.271 0.434 0.38 0.705 0.271s0.38-0.434 0.271-0.705c-0.597-1.302-1.464-2.115-2.115-2.603-0.163-0.108-0.434-0.108-0.597 0-0.271 0.163-2.658 1.898-2.658 5.044 0 1.573 0.597 2.929 1.247 3.851-0.271 0-0.542 0-0.814 0-0.922-0.108-2.115-0.434-3.146-1.41-1.519-1.519-1.573-3.363-1.519-4.176 0.597-0.054 1.681-0.054 2.82 0.488 0.271 0.108 0.597 0 0.705-0.271s0-0.597-0.271-0.705c-1.79-0.868-3.634-0.542-3.797-0.542-0.271 0.054-0.434 0.217-0.434 0.434-0.054 0.325-0.542 3.254 1.681 5.478 1.193 1.247 2.603 1.627 3.688 1.736zM14.264 4.881c1.193-1.193 2.658-1.464 3.688-1.464 0.163 0 0.325 0 0.434 0 0.054 0.814 0 2.658-1.41 4.122-0.868 0.868-1.898 1.247-2.766 1.41-0.054 0-0.108 0-0.108 0-0.271 0.054-0.542 0.054-0.759 0.054v0c-0.163 0-0.325 0-0.434 0-0.108-0.759-0.108-2.658 1.356-4.122z"></path>
</svg>
