<?xml version="1.0" encoding="utf-8"?>
<!-- Generated by IcoMoon.io -->
<!DOCTYPE svg PUBLIC "-//W3C//DTD SVG 1.1//EN" "http://www.w3.org/Graphics/SVG/1.1/DTD/svg11.dtd">
<svg version="1.1" xmlns="http://www.w3.org/2000/svg" xmlns:xlink="http://www.w3.org/1999/xlink" width="32" height="32" viewBox="0 0 32 32">
<path d="M4 12h6c1.2 0 2-0.8 2-2v-2h8v2c0 1.2 0.8 2 2 2h6c1.2 0 2-0.8 2-2v-4c0-3.4-2.6-6-6-6h-16c-3.4 0-6 2.6-6 6v4c0 1.2 0.8 2 2 2zM4 6c0-2.2 1.8-4 4-4h16c2.2 0 4 1.8 4 4v4h-6v-4h-12v4h-6v-4z"></path>
<path d="M8 20c0 4.4 3.6 8 8 8s8-3.6 8-8-3.6-8-8-8-8 3.6-8 8zM22 20c0 3.4-2.6 6-6 6s-6-2.6-6-6 2.6-6 6-6c3.4 0 6 2.6 6 6z"></path>
<path d="M26 14h-2c0.4 0.6 0.8 1.2 1.2 2h0.8c2.2 0 4 1.8 4 4v10h-28v-10c0-2.2 1.8-4 4-4h0.8c0.4-0.8 0.8-1.4 1.2-2h-2c-3.4 0-6 2.6-6 6v10c0 1.2 0.8 2 2 2h28c1.2 0 2-0.8 2-2v-10c0-3.4-2.6-6-6-6z"></path>
</svg>
