<?xml version="1.0" encoding="utf-8"?>
<!-- Generated by IcoMoon.io -->
<!DOCTYPE svg PUBLIC "-//W3C//DTD SVG 1.1//EN" "http://www.w3.org/Graphics/SVG/1.1/DTD/svg11.dtd">
<svg version="1.1" xmlns="http://www.w3.org/2000/svg" xmlns:xlink="http://www.w3.org/1999/xlink" width="32" height="32" viewBox="0 0 32 32">
<path d="M16 0c-6.6 0-12 5.4-12 12 0 2.2 0.6 4.2 1.6 6v0l10.4 14 10.4-14c1-1.8 1.6-3.8 1.6-6 0-6.6-5.4-12-12-12zM24 18l-8 10.6-8-10.6c-1.2-1.6-2-3.8-2-6 0-5.6 4.4-10 10-10s10 4.4 10 10c0 2.2-0.8 4.4-2 6v0z"></path>
<path d="M16 6c-3.4 0-6 2.6-6 6s2.6 6 6 6 6-2.6 6-6c0-3.4-2.6-6-6-6zM16 16c-2.2 0-4-1.8-4-4s1.8-4 4-4 4 1.8 4 4-1.8 4-4 4z"></path>
</svg>
