<?xml version="1.0" encoding="utf-8"?>
<!-- Generated by IcoMoon.io -->
<!DOCTYPE svg PUBLIC "-//W3C//DTD SVG 1.1//EN" "http://www.w3.org/Graphics/SVG/1.1/DTD/svg11.dtd">
<svg version="1.1" xmlns="http://www.w3.org/2000/svg" xmlns:xlink="http://www.w3.org/1999/xlink" width="32" height="32" viewBox="0 0 32 32">
<path d="M16.865 0c-8.865 0-13.189 6.27-13.189 11.459 0 3.243 1.297 6.054 3.892 6.919 0.432 0.216 0.865 0 0.865-0.432 0-0.216 0.432-1.081 0.649-1.514s0-0.649-0.216-1.081c-1.081-0.649-1.514-1.514-1.514-3.243 0-5.189 3.243-9.081 8.865-9.081 4.973 0 7.784 3.027 7.784 7.135 0 5.189-2.378 9.513-5.838 9.513-1.946 0-3.459-1.514-3.027-3.459 0.649-2.378 1.73-4.757 1.73-6.486 0-1.297-0.865-2.378-2.595-2.378-1.946 0-3.459 1.946-3.459 4.541 0 1.73 0.649 2.595 0.649 2.595s-1.946 8.865-2.378 10.378c-0.649 3.027 0 6.486 0 6.919 0 0.216 0.216 0.216 0.432 0s2.595-3.027 3.243-6.054c0.216-0.865 1.297-4.973 1.297-4.973 0.649 1.297 2.595 1.946 4.541 1.946 6.054 0 9.946-4.973 9.946-12.324 0-5.189-4.757-10.378-11.676-10.378z"></path>
</svg>
