<?xml version="1.0" encoding="utf-8"?>
<!-- Generated by IcoMoon.io -->
<!DOCTYPE svg PUBLIC "-//W3C//DTD SVG 1.1//EN" "http://www.w3.org/Graphics/SVG/1.1/DTD/svg11.dtd">
<svg version="1.1" xmlns="http://www.w3.org/2000/svg" xmlns:xlink="http://www.w3.org/1999/xlink" width="32" height="32" viewBox="0 0 32 32">
<path d="M4.8 6.24h22.4v1.6h-22.4v-1.6z"></path>
<path d="M16 2.56c1.6 0 2.88 1.28 2.88 2.88h1.6c0-2.56-2.080-4.48-4.48-4.48s-4.64 2.080-4.64 4.64h1.6c0-1.6 1.44-3.040 3.040-3.040z"></path>
<path d="M27.2 8.8v0c-5.44 0-17.76 0-22.4 0v0c-2.56 0-4.48 2.080-4.48 4.48s2.080 4.48 4.48 4.48v9.44c0 2.080 1.28 3.68 3.040 3.68h16.48c1.6 0 3.040-1.6 3.040-3.68v-9.44c2.56 0 4.48-2.080 4.48-4.48s-2.24-4.48-4.64-4.48zM4.8 16.32c-1.6 0-2.88-1.28-2.88-2.88s1.28-3.040 2.88-3.040v5.92zM25.6 27.36c0 1.28-0.8 2.080-1.44 2.080h-16.48c-0.64 0-1.44-0.8-1.44-2.080v-16.96h19.2v16.96zM27.2 16.32v-5.92c1.6 0 2.88 1.28 2.88 2.88s-1.28 3.040-2.88 3.040z"></path>
</svg>
