<?xml version="1.0" encoding="utf-8"?>
<!-- Generated by IcoMoon.io -->
<!DOCTYPE svg PUBLIC "-//W3C//DTD SVG 1.1//EN" "http://www.w3.org/Graphics/SVG/1.1/DTD/svg11.dtd">
<svg version="1.1" xmlns="http://www.w3.org/2000/svg" xmlns:xlink="http://www.w3.org/1999/xlink" width="32" height="32" viewBox="0 0 32 32">
<path d="M31.322 28.61l-9.627-9.627c1.356-2.034 2.305-4.339 2.305-7.051 0-6.644-5.424-12.068-12.068-12.068s-11.932 5.559-11.932 12.203 5.424 12.068 12.068 12.068c2.576 0 5.017-0.814 7.051-2.305l9.627 9.627c0.814 0.814 2.034 0.814 2.712 0s0.678-2.034-0.136-2.847zM12.068 21.966c-5.559 0-10.034-4.475-10.034-10.034s4.475-10.034 10.034-10.034 10.034 4.475 10.034 10.034-4.61 10.034-10.034 10.034z"></path>
</svg>
