<?xml version="1.0" encoding="utf-8"?>
<!-- Generated by IcoMoon.io -->
<!DOCTYPE svg PUBLIC "-//W3C//DTD SVG 1.1//EN" "http://www.w3.org/Graphics/SVG/1.1/DTD/svg11.dtd">
<svg version="1.1" xmlns="http://www.w3.org/2000/svg" xmlns:xlink="http://www.w3.org/1999/xlink" width="32" height="32" viewBox="0 0 32 32">
<path d="M32 6.137c-1.096 0.438-2.411 0.877-3.726 1.096 1.315-0.877 2.411-2.192 2.849-3.726-1.096 0.658-2.63 1.315-4.164 1.534-1.315-1.315-2.849-1.973-4.822-1.973-3.726 0-6.575 2.849-6.575 6.575 0 0.438 0 1.096 0.219 1.534-5.479-0.438-10.301-3.069-13.589-7.014-0.658 0.877-0.877 2.192-0.877 3.288 0 2.192 1.096 4.384 2.849 5.479-1.096 0-2.192-0.438-3.068-0.877 0 0 0 0 0 0 0 3.288 2.192 5.918 5.26 6.356-0.438 0.438-1.096 0.438-1.534 0.438s-0.877 0-1.315-0.219c0.877 2.63 3.288 4.603 6.137 4.603-2.192 1.753-5.041 2.849-8.11 2.849-0.438 0-1.096 0-1.534 0 2.849 1.973 6.356 2.849 10.082 2.849 12.055 0 18.849-10.082 18.849-18.63 0-0.219 0-0.658 0-0.877 1.096-0.877 2.192-1.973 3.069-3.288z"></path>
</svg>
