<?xml version="1.0" encoding="utf-8"?>
<!-- Generated by IcoMoon.io -->
<!DOCTYPE svg PUBLIC "-//W3C//DTD SVG 1.1//EN" "http://www.w3.org/Graphics/SVG/1.1/DTD/svg11.dtd">
<svg version="1.1" xmlns="http://www.w3.org/2000/svg" xmlns:xlink="http://www.w3.org/1999/xlink" width="32" height="32" viewBox="0 0 32 32">
<path d="M30 0h-28c-1.2 0-2 0.8-2 2v20c0 1.2 0.8 2 2 2h12v6h-8c-0.6 0-1 0.4-1 1s0.4 1 1 1h20c0.6 0 1-0.4 1-1s-0.4-1-1-1h-8v-6h12c1.2 0 2-0.8 2-2v-20c0-1.2-0.8-2-2-2zM30 22h-28v-20h28v20z"></path>
</svg>
