<?xml version="1.0" encoding="utf-8"?>
<!-- Generated by IcoMoon.io -->
<!DOCTYPE svg PUBLIC "-//W3C//DTD SVG 1.1//EN" "http://www.w3.org/Graphics/SVG/1.1/DTD/svg11.dtd">
<svg version="1.1" xmlns="http://www.w3.org/2000/svg" xmlns:xlink="http://www.w3.org/1999/xlink" width="32" height="32" viewBox="0 0 32 32">
<path d="M16.8 22.080c4.96-0.32 8.8-4.48 8.8-9.44 0-3.36-0.32-7.040-2.080-10.72h-15.2c-1.76 3.52-1.76 10.56-1.76 10.56 0 4.96 3.84 8.96 8.64 9.44v6.56h-6.4v1.6h14.4v-1.6h-6.4v-6.4zM8.16 12.48c0-1.6 0.32-6.24 1.28-9.12h12.96c1.28 3.36 1.44 6.72 1.44 9.12 0 4.32-3.52 7.84-7.84 7.84-4.32 0.16-7.84-3.36-7.84-7.84z"></path>
</svg>
