<?xml version="1.0" standalone="no"?>
<!DOCTYPE svg PUBLIC "-//W3C//DTD SVG 20010904//EN"
 "http://www.w3.org/TR/2001/REC-SVG-20010904/DTD/svg10.dtd">
<svg version="1.0" xmlns="http://www.w3.org/2000/svg"
 width="2722.000000pt" height="2722.000000pt" viewBox="0 0 2722.000000 2722.000000"
 preserveAspectRatio="xMidYMid meet">
<metadata>
Created by potrace 1.11, written by Peter Selinger 2001-2013
</metadata>
<g transform="translate(0.000000,2722.000000) scale(0.100000,-0.100000)"
fill="#000000" stroke="none">
<path d="M12055 27205 c-68 -37 -122 -119 -145 -221 -13 -55 -11 -159 3 -219
14 -64 17 -78 23 -115 3 -19 15 -73 25 -120 11 -47 22 -94 24 -105 49 -221
159 -438 288 -563 129 -127 292 -208 459 -228 39 -5 99 15 131 44 40 36 81
138 92 232 3 25 7 56 10 70 7 35 7 129 0 165 -59 295 -142 506 -264 672 -185
252 -522 455 -646 388z"/>
<path d="M15050 25557 c-375 -228 -596 -420 -753 -655 -155 -231 -221 -455
-221 -752 -1 -279 31 -415 115 -500 57 -56 127 -69 216 -39 167 56 470 285
596 449 23 30 44 57 47 60 18 16 78 118 115 195 58 118 103 265 119 393 3 23
9 60 12 83 8 60 8 244 -1 329 -4 41 -9 86 -10 100 -1 14 -5 39 -9 55 -3 17 -8
47 -11 69 -2 21 -7 46 -9 55 -3 9 -7 27 -10 41 -6 32 -35 160 -42 183 -3 9 -8
17 -12 16 -4 0 -68 -37 -142 -82z"/>
<path d="M11362 24348 c-51 -37 -67 -92 -67 -238 0 -216 24 -389 82 -575 29
-95 89 -239 115 -277 10 -14 18 -29 18 -32 0 -28 145 -213 234 -299 112 -106
318 -236 456 -286 19 -7 44 -17 55 -22 69 -29 217 -63 281 -64 88 0 133 26
163 95 28 65 29 76 45 369 4 65 -43 251 -100 393 -88 224 -216 417 -373 567
-44 42 -205 164 -246 187 -11 6 -40 22 -65 36 -104 57 -286 125 -422 157 -77
18 -139 14 -176 -11z"/>
<path d="M13205 24198 c2 -18 9 -69 15 -113 6 -44 13 -93 15 -110 12 -98 15
-128 21 -200 3 -44 7 -93 9 -110 6 -47 18 -380 18 -480 -1 -99 -12 -405 -18
-445 -1 -14 -6 -66 -10 -114 -4 -49 -8 -96 -10 -105 -1 -9 -6 -43 -9 -76 -10
-81 -14 -115 -32 -220 -8 -49 -17 -103 -19 -120 -3 -16 -10 -50 -15 -75 -5
-25 -12 -56 -14 -70 -2 -14 -11 -55 -20 -91 -8 -37 -17 -78 -20 -90 -3 -13
-15 -62 -26 -109 -12 -47 -23 -89 -24 -95 -17 -69 -117 -387 -168 -535 -63
-181 -173 -454 -268 -670 -61 -138 -380 -785 -409 -829 -6 -10 -30 8 -97 74
-203 200 -427 369 -679 513 -122 69 -475 236 -525 247 -8 2 -50 17 -92 34 -74
29 -372 127 -413 135 -11 3 -78 21 -149 41 -71 20 -137 38 -145 40 -9 2 -63
15 -121 30 -58 15 -124 31 -147 36 -23 4 -71 16 -105 25 -35 9 -70 17 -78 19
-32 7 -157 37 -190 46 -19 5 -93 23 -165 40 -271 64 -260 59 -371 170 -54 55
-101 99 -105 99 -4 0 -14 6 -21 13 -20 19 -67 51 -118 79 -46 25 -160 71 -160
64 0 -2 -19 2 -42 8 -24 7 -85 14 -135 15 -92 3 -93 3 -93 -22 0 -45 40 -178
70 -236 33 -61 109 -143 173 -186 50 -33 189 -98 257 -120 30 -10 381 -181
780 -380 399 -200 757 -377 795 -395 179 -83 460 -223 560 -280 425 -243 702
-512 864 -838 41 -81 92 -213 106 -272 19 -79 36 -168 42 -221 10 -81 10 -418
0 -484 -5 -27 -10 -66 -12 -85 -3 -28 -14 -90 -20 -120 -32 -155 -43 -220 -65
-395 -32 -253 -35 -843 -5 -1060 2 -16 7 -55 10 -85 9 -94 47 -347 62 -415 2
-11 10 -49 17 -85 25 -118 44 -203 85 -370 22 -91 42 -176 44 -190 3 -14 12
-59 20 -100 23 -110 61 -323 72 -405 3 -22 7 -53 10 -70 7 -50 22 -177 30
-270 3 -33 8 -76 10 -95 23 -208 23 -874 0 -1022 -2 -12 -6 -55 -9 -94 -4 -39
-8 -80 -10 -90 -2 -11 -7 -48 -11 -84 -4 -36 -9 -74 -11 -85 -2 -11 -6 -36 -9
-55 -3 -19 -7 -46 -10 -60 -3 -14 -7 -41 -10 -60 -2 -19 -12 -69 -20 -110 -31
-142 -55 -245 -65 -285 -6 -22 -12 -47 -14 -55 -2 -8 -10 -35 -17 -60 -7 -25
-13 -50 -14 -55 -7 -30 -74 -238 -118 -359 -138 -390 -312 -749 -572 -1186
-197 -332 -321 -615 -425 -975 -31 -106 -82 -323 -94 -395 -3 -19 -12 -73 -20
-120 -8 -47 -18 -111 -21 -143 -4 -32 -8 -67 -10 -78 -2 -11 -7 -55 -10 -97
-3 -42 -8 -93 -10 -112 -28 -221 -17 -868 20 -1195 2 -16 6 -59 10 -95 3 -36
8 -76 10 -90 2 -14 6 -50 10 -80 3 -30 8 -71 11 -90 5 -46 13 -113 19 -175 3
-27 8 -66 10 -85 2 -19 7 -60 10 -90 3 -30 8 -71 10 -90 8 -61 14 -113 20
-185 4 -38 8 -81 10 -95 2 -14 9 -74 15 -135 6 -60 13 -126 15 -145 3 -19 7
-64 10 -100 3 -36 8 -76 10 -90 2 -14 7 -63 10 -110 4 -46 8 -87 10 -90 1 -3
6 -47 9 -98 4 -51 9 -100 10 -110 2 -9 7 -53 10 -97 4 -44 9 -91 11 -105 2
-14 6 -56 9 -95 3 -38 8 -90 11 -115 8 -73 14 -141 20 -210 3 -36 8 -81 10
-100 2 -19 6 -62 9 -95 3 -33 8 -87 11 -120 3 -33 8 -80 10 -105 5 -45 10 -97
20 -225 3 -38 8 -81 10 -95 2 -14 7 -59 10 -100 3 -41 8 -93 10 -115 2 -22 7
-71 10 -110 6 -68 8 -97 20 -215 3 -30 7 -81 10 -113 2 -32 7 -73 9 -90 3 -18
8 -68 11 -112 3 -44 8 -98 10 -120 3 -22 7 -65 10 -95 2 -30 7 -77 9 -105 3
-27 8 -79 11 -115 3 -36 7 -81 10 -100 3 -19 7 -66 10 -105 3 -38 8 -90 10
-115 7 -62 13 -124 20 -195 9 -108 14 -159 20 -215 13 -119 14 -137 20 -205 3
-38 7 -83 10 -100 2 -16 7 -57 10 -90 3 -33 8 -78 10 -100 2 -22 9 -89 15
-150 6 -60 13 -123 15 -140 2 -16 7 -57 10 -90 3 -33 8 -80 12 -105 3 -25 7
-58 8 -75 8 -95 18 -185 25 -220 l7 -40 6 35 c3 19 13 89 22 155 9 66 18 131
20 145 4 26 25 176 30 220 2 14 6 54 10 90 4 36 8 67 10 70 1 3 6 37 9 75 4
39 9 77 11 85 2 8 6 44 9 80 3 36 8 74 10 85 2 11 7 54 11 95 4 41 9 82 10 91
2 8 6 49 10 90 3 41 8 85 10 99 2 14 7 61 10 105 4 44 9 98 10 120 25 276 30
555 20 950 -2 94 -7 289 -10 435 -3 146 -8 364 -10 485 -11 496 -25 1320 -30
1790 -2 198 -6 374 -9 390 -2 17 -7 57 -10 90 -4 33 -11 92 -16 130 -26 181
-15 373 24 457 52 108 151 157 306 153 165 -5 264 -64 326 -195 29 -59 42 -98
49 -145 3 -16 9 -57 14 -90 5 -33 10 -118 10 -190 3 -234 10 -500 15 -521 2
-12 7 -79 11 -150 3 -71 8 -145 10 -164 1 -19 6 -89 10 -155 3 -66 8 -140 10
-165 2 -25 7 -94 10 -153 3 -60 8 -125 10 -145 2 -20 6 -91 10 -157 3 -66 8
-136 10 -155 2 -19 7 -87 10 -150 3 -63 7 -133 9 -155 2 -22 7 -92 10 -155 4
-63 9 -135 11 -160 3 -25 7 -90 10 -145 3 -55 7 -131 10 -170 7 -97 13 -184
20 -295 3 -52 8 -120 10 -150 6 -90 14 -209 20 -305 3 -49 8 -117 11 -150 2
-33 7 -95 9 -137 11 -174 15 -236 19 -293 3 -33 8 -105 11 -160 4 -55 8 -120
10 -145 2 -25 7 -88 10 -140 3 -52 8 -115 10 -140 2 -25 7 -90 10 -145 3 -55
8 -118 10 -140 2 -22 6 -80 9 -130 4 -49 9 -117 11 -150 6 -74 12 -164 20
-270 3 -44 8 -100 10 -125 4 -44 11 -144 21 -270 7 -101 14 -181 19 -225 2
-22 7 -71 10 -110 9 -106 16 -187 20 -220 2 -16 6 -57 10 -90 7 -64 21 -94 21
-47 1 43 15 342 19 392 2 25 6 126 10 225 4 99 8 209 10 245 2 36 6 126 10
200 9 234 14 352 20 465 3 61 7 171 10 245 3 74 7 180 10 235 2 55 7 172 10
260 3 88 8 198 10 245 2 47 7 150 10 230 3 80 8 192 10 250 3 58 7 177 10 265
3 88 8 198 10 245 2 47 7 157 10 245 3 88 8 203 10 255 6 148 15 364 20 490 3
63 7 171 10 240 3 69 7 181 10 250 3 69 7 184 10 255 3 72 7 175 10 230 6 168
15 375 20 475 3 52 7 158 10 235 3 77 8 176 10 220 2 44 7 148 10 230 4 83 8
184 10 225 2 41 7 140 11 220 3 80 8 156 9 170 2 14 4 28 4 33 1 4 108 6 238
5 l237 -3 2 -275 c2 -255 10 -758 19 -1215 5 -250 18 -696 30 -1055 3 -80 7
-218 10 -308 3 -89 7 -217 10 -285 5 -120 10 -261 20 -527 3 -74 7 -184 10
-245 3 -60 7 -164 10 -230 3 -66 8 -163 10 -215 2 -52 7 -151 10 -220 3 -69 7
-161 10 -205 2 -44 7 -138 10 -210 3 -71 8 -152 10 -180 2 -27 7 -115 10 -195
4 -80 8 -163 10 -185 1 -22 6 -98 10 -170 4 -71 8 -146 10 -165 2 -19 6 -91
11 -160 4 -69 8 -141 9 -160 2 -19 6 -78 9 -130 4 -52 9 -122 11 -155 3 -33 7
-85 9 -115 3 -30 8 -86 11 -125 3 -38 8 -88 10 -110 3 -22 7 -67 10 -100 5
-58 23 -200 30 -240 12 -75 19 -102 26 -115 5 -8 9 -11 9 -5 1 6 3 17 4 25 2
8 6 51 10 95 4 44 9 103 11 130 3 28 7 80 10 118 7 97 14 181 20 272 4 44 8
103 10 130 2 28 7 91 10 140 4 50 8 110 10 135 2 25 6 88 9 140 4 52 9 122 11
155 3 33 7 94 10 135 2 41 6 100 9 130 3 30 8 100 11 155 3 55 8 123 10 150 5
64 15 213 20 290 6 105 16 248 21 300 2 28 6 84 9 125 9 151 16 256 20 310 2
30 7 98 10 150 4 52 8 118 10 145 3 28 7 97 10 155 3 58 8 125 10 150 3 25 7
88 10 140 6 97 11 185 19 300 3 36 8 106 11 155 3 50 8 119 10 155 7 90 14
189 20 295 3 50 7 117 10 150 2 33 7 96 10 140 8 141 16 259 20 305 2 25 6 99
10 165 3 66 8 138 10 160 3 22 7 87 10 145 3 58 8 130 10 160 4 52 9 121 20
305 3 44 8 112 10 150 13 181 16 252 20 410 4 184 12 280 26 307 6 10 7 18 4
18 -12 0 57 118 84 144 40 38 131 67 211 67 219 1 343 -119 375 -361 6 -50 7
-263 0 -325 -2 -22 -6 -98 -9 -170 -7 -141 -13 -262 -21 -425 -12 -212 -15
-267 -20 -380 -2 -63 -7 -155 -10 -205 -3 -49 -8 -135 -10 -190 -6 -127 -14
-285 -20 -400 -3 -49 -7 -137 -10 -195 -2 -58 -7 -159 -11 -225 -3 -66 -7
-156 -9 -200 -4 -90 -13 -282 -20 -395 -2 -41 -7 -140 -10 -220 -4 -80 -8
-170 -10 -200 -2 -30 -6 -120 -10 -200 -4 -80 -8 -170 -10 -200 -2 -30 -7
-122 -10 -205 -4 -82 -9 -177 -11 -210 -5 -94 -5 -374 0 -435 10 -105 26 -251
41 -355 12 -87 37 -253 41 -275 2 -14 11 -70 19 -125 19 -120 24 -152 30 -185
7 -38 14 -80 19 -125 3 -22 8 -51 11 -65 5 -23 12 -70 20 -128 4 -31 31 -194
36 -217 2 -11 9 33 34 200 8 61 17 121 20 135 2 14 7 49 10 79 4 30 8 61 10
70 1 9 6 45 10 81 4 36 9 68 10 71 2 3 6 32 9 65 4 32 8 70 11 84 4 23 18 131
31 235 2 22 9 72 14 110 10 77 16 124 25 200 4 28 8 61 10 75 2 14 7 52 10 85
4 33 8 71 10 85 6 39 23 180 30 235 3 28 7 66 10 85 3 19 7 58 10 85 12 107
16 141 21 167 2 15 6 47 9 70 8 79 17 154 30 256 3 20 14 114 25 207 11 94 22
184 24 200 3 17 7 57 11 90 4 33 8 71 10 85 7 45 24 184 30 240 4 30 8 66 10
80 2 14 6 48 9 75 4 28 11 82 16 120 5 39 12 93 15 120 6 56 14 117 20 155 2
14 7 52 11 85 3 33 8 69 10 80 2 11 6 44 9 74 3 30 7 57 9 60 2 3 7 37 11 74
3 37 8 76 10 85 4 25 14 91 20 142 4 25 8 56 10 70 2 14 7 45 10 70 3 25 8 57
11 71 2 15 6 47 9 70 3 24 8 55 10 69 5 29 52 336 65 425 16 107 21 140 25
165 3 14 10 61 15 105 6 44 13 94 16 110 8 55 14 99 19 160 4 33 8 67 10 75 2
8 7 42 10 75 3 33 7 76 10 95 2 19 7 60 10 90 3 30 8 71 10 90 3 19 8 71 11
115 3 44 7 96 9 115 3 34 14 175 20 270 21 334 21 937 0 1165 -2 17 -6 74 -10
128 -3 54 -8 106 -10 117 -2 10 -7 50 -10 87 -4 37 -9 75 -10 84 -2 9 -6 40
-10 70 -46 385 -162 855 -310 1254 -127 343 -312 715 -494 995 -20 31 -40 63
-46 72 -19 32 -119 174 -189 268 -152 203 -313 391 -524 610 -127 132 -186
206 -274 339 -62 94 -187 332 -230 436 -44 110 -130 357 -143 411 -2 10 -23
89 -46 174 -22 85 -43 166 -45 180 -3 13 -14 63 -25 110 -16 68 -57 257 -74
340 -2 8 -19 92 -39 185 -19 94 -41 206 -47 250 -6 44 -12 82 -14 85 -6 10
-19 229 -19 320 1 501 158 894 494 1231 136 137 248 225 430 338 82 51 362
191 370 186 4 -3 19 10 33 28 23 30 107 114 187 187 53 47 208 163 270 201 30
18 57 35 60 38 23 26 286 155 435 214 183 72 435 149 605 183 14 3 45 10 70
15 25 6 56 13 70 15 14 2 34 6 46 9 12 3 36 7 55 10 19 3 93 16 165 28 l131
23 23 -35 c13 -20 39 -61 59 -91 19 -30 73 -107 120 -170 404 -550 835 -846
1335 -918 68 -9 345 -9 426 1 151 18 385 83 569 156 141 57 529 263 546 291
11 18 -439 477 -600 612 -302 252 -541 359 -880 395 -128 13 -485 7 -640 -11
-16 -2 -59 -7 -95 -11 -36 -3 -78 -8 -95 -10 -16 -2 -52 -7 -80 -10 -104 -12
-141 -17 -165 -20 -14 -3 -51 -8 -83 -11 l-58 -7 7 29 c27 117 89 194 254 317
74 55 160 123 190 152 36 34 84 64 140 90 346 156 433 207 550 325 161 162
197 300 106 406 -28 32 -38 37 -72 36 -37 -2 -139 -29 -189 -51 -11 -5 -38
-15 -60 -24 -22 -8 -64 -25 -93 -37 -30 -12 -64 -22 -76 -23 -12 -1 -45 -20
-72 -43 -27 -22 -148 -115 -269 -207 -224 -169 -232 -173 -345 -191 -19 -3
-91 -17 -160 -31 -69 -14 -134 -27 -145 -29 -11 -2 -65 -14 -120 -26 -55 -12
-111 -24 -125 -26 -35 -7 -260 -60 -425 -100 -131 -31 -487 -127 -600 -160
-27 -8 -57 -16 -65 -19 -35 -8 -317 -96 -335 -104 -11 -5 -90 -32 -175 -61
-149 -50 -503 -181 -538 -199 -9 -5 -53 -24 -97 -42 -44 -17 -113 -47 -153
-66 -41 -18 -75 -33 -77 -33 -7 0 -209 -97 -350 -167 -202 -102 -364 -190
-513 -280 -41 -25 -76 -42 -79 -39 -3 3 -6 51 -8 108 -1 57 -6 222 -11 368
-12 406 -9 635 10 750 2 14 7 52 10 85 3 33 8 69 10 80 2 11 7 43 10 70 15
102 33 215 46 275 5 25 12 56 14 70 2 14 11 57 20 95 9 39 18 81 20 95 2 14
31 131 64 260 59 229 142 516 331 1145 50 168 91 316 106 385 21 96 67 335 71
370 2 25 6 54 9 65 2 11 6 45 10 75 3 30 7 71 10 90 23 197 23 646 0 791 -2
13 -6 47 -9 74 -15 136 -71 415 -106 530 -31 101 -102 308 -120 350 -11 28
-26 63 -33 79 -39 94 -166 346 -212 421 -14 22 -34 56 -45 75 -22 38 -40 68
-53 84 -4 6 -39 57 -78 114 -38 56 -72 102 -74 102 -3 0 -3 -15 0 -32z"/>
<path d="M6579 23848 c-3 -11 -9 -50 -14 -88 -3 -25 -7 -55 -9 -67 -3 -13 -8
-65 -11 -115 -26 -366 29 -624 181 -861 128 -199 442 -424 604 -432 157 -9
270 99 273 259 1 63 -9 193 -18 236 -3 14 -8 41 -11 60 -3 19 -13 60 -21 90
-106 401 -373 686 -803 858 -141 56 -169 66 -171 60z"/>
<path d="M9279 23147 c-130 -66 -215 -167 -248 -292 -25 -99 -25 -77 -17 -635
4 -323 37 -488 134 -673 111 -213 303 -346 547 -382 125 -18 214 9 282 85 39
43 91 156 109 237 25 110 24 427 -1 523 -2 8 -7 35 -10 60 -13 94 -48 237 -82
334 -111 319 -284 546 -541 710 -91 58 -114 62 -173 33z"/>
<path d="M20109 22421 c-244 -112 -418 -228 -569 -380 -191 -192 -304 -419
-337 -676 -10 -76 -10 -343 0 -412 32 -228 176 -345 362 -294 140 38 461 305
601 501 161 225 228 427 228 690 0 185 -22 314 -86 505 -37 108 -45 125 -61
124 -7 0 -69 -26 -138 -58z"/>
<path d="M17179 21276 c-103 -36 -173 -138 -218 -321 -16 -66 -32 -140 -36
-165 -4 -25 -9 -52 -10 -60 -32 -182 -36 -442 -9 -600 3 -19 8 -46 10 -60 26
-147 131 -388 226 -515 65 -88 202 -225 292 -292 102 -75 269 -174 333 -195
30 -11 57 -18 58 -16 2 2 4 35 6 73 2 71 11 105 47 185 54 121 112 312 126
415 3 22 8 58 11 80 12 88 5 305 -10 365 -3 8 -7 30 -10 48 -48 287 -241 616
-533 914 -142 144 -199 173 -283 144z"/>
<path d="M14946 20766 c-51 -19 -90 -58 -115 -115 -32 -76 -34 -94 -37 -341
-1 -129 -6 -293 -10 -365 -12 -205 -6 -400 16 -485 5 -19 11 -48 14 -63 42
-240 200 -457 411 -565 64 -32 194 -71 259 -78 113 -12 200 35 245 132 20 42
53 165 66 244 3 19 7 46 10 60 3 14 7 41 10 60 3 19 15 69 27 110 11 41 21 80
21 85 0 9 -44 261 -58 335 -87 459 -212 721 -418 873 -129 96 -339 150 -441
113z"/>
<path d="M8008 20484 c-2 -1 -32 -5 -68 -9 -36 -4 -73 -9 -84 -11 -10 -2 -44
-6 -75 -9 -123 -13 -238 -36 -340 -66 -86 -26 -240 -87 -271 -109 -14 -9 -32
-19 -41 -22 -31 -12 -155 -95 -229 -156 -134 -109 -233 -212 -366 -382 -66
-86 -127 -174 -200 -290 -77 -123 -197 -331 -192 -335 4 -4 143 -33 195 -40
21 -3 44 -8 52 -11 8 -3 40 -7 70 -10 31 -3 62 -7 69 -9 53 -17 408 -25 542
-13 500 48 912 282 1251 713 131 166 172 263 173 405 0 83 -3 102 -27 152 -68
143 -165 198 -354 202 -57 2 -104 2 -105 0z"/>
<path d="M19807 19534 c-1 -1 -45 -4 -97 -8 -52 -3 -106 -8 -120 -11 -14 -3
-38 -7 -55 -9 -69 -9 -244 -58 -292 -82 -191 -95 -241 -266 -119 -407 14 -16
40 -47 58 -69 50 -62 212 -203 298 -260 140 -92 339 -174 471 -194 147 -21
302 -25 416 -9 100 13 120 17 213 40 173 43 385 122 413 153 8 9 33 44 55 76
l40 60 -41 55 c-271 374 -625 600 -1017 650 -71 9 -217 19 -223 15z"/>
<path d="M10419 18935 c-2 -2 -24 -6 -49 -10 -315 -44 -757 -244 -1126 -508
-371 -266 -636 -553 -751 -812 -38 -87 -46 -128 -46 -230 0 -163 56 -247 190
-282 66 -17 392 -24 527 -10 187 19 478 92 686 174 480 188 901 483 1135 795
138 184 195 337 190 508 -7 231 -115 340 -360 365 -72 7 -391 16 -396 10z"/>
<path d="M14605 16692 c-26 -102 -41 -537 -21 -632 2 -14 7 -47 10 -75 14
-128 56 -308 108 -460 210 -611 666 -1123 1251 -1404 219 -105 416 -168 682
-216 123 -22 304 -25 371 -7 60 17 106 52 134 102 23 41 25 55 25 165 0 66 -4
152 -8 190 -5 39 -10 90 -13 115 -6 59 -22 177 -29 215 -25 126 -86 347 -115
410 -5 11 -21 49 -35 85 -15 36 -52 112 -82 170 -346 653 -995 1113 -1823
1295 -90 20 -91 20 -205 39 -49 8 -117 18 -150 22 -33 3 -67 8 -77 9 -11 2
-19 -6 -23 -23z"/>
</g>
</svg>
