<svg xmlns="http://www.w3.org/2000/svg" xmlns:xlink="http://www.w3.org/1999/xlink" width="300" height="300" viewBox="0 0 300 300"><radialGradient id="a" cx="57.388" cy="57.021" r="264.58" gradientUnits="userSpaceOnUse"><stop offset="0" stop-color="#9DD5F6"/><stop offset=".071" stop-color="#98D3F5"/><stop offset=".158" stop-color="#89CEF3"/><stop offset=".252" stop-color="#70C6EF"/><stop offset=".351" stop-color="#4EBBEA"/><stop offset=".455" stop-color="#23ADE3"/><stop offset=".5" stop-color="#0DA6E0"/><stop offset="1" stop-color="#2E77BC"/></radialGradient><path fill="url(#a)" d="M289.584 7.598h-281.945v282.966h281.945v-93.386c1.12-1.619 1.673-3.69 1.673-6.222 0-2.898-.553-4.693-1.673-6.205"/><defs><path id="b" d="M289.584 7.598h-281.945v282.966h281.945v-93.386c1.12-1.619 1.673-3.69 1.673-6.222 0-2.898-.553-4.693-1.673-6.205"/></defs><clipPath><use xlink:href="#b" overflow="visible"/></clipPath><path fill="#fff" d="M33.053 130.042l-5.424-13.217-5.393 13.217m130.307-5.263c-1.089.661-2.377.683-3.92.683h-9.627v-7.364h9.758c1.381 0 2.822.062 3.758.598 1.028.483 1.664 1.511 1.664 2.931 0 1.449-.605 2.615-1.633 3.152zm68.678 5.263l-5.484-13.217-5.454 13.217h10.938zm-128.02 14.306h-8.124l-.03-25.966-11.491 25.966h-6.958l-11.521-25.989v25.989h-16.118l-3.045-7.395h-16.5l-3.076 7.395h-8.607l14.191-33.154h11.774l13.478 31.39v-31.39h12.934l10.371 22.491 9.527-22.491h13.194v33.154zm32.379 0h-26.473v-33.154h26.473v6.904h-18.548v5.976h18.103v6.796h-18.103v6.621h18.548v6.857zm37.326-24.225c0 5.286-3.528 8.017-5.584 8.837 1.734.66 3.215 1.826 3.92 2.792 1.119 1.649 1.312 3.122 1.312 6.083v6.513h-7.993l-.03-4.181c0-1.995.191-4.864-1.251-6.459-1.158-1.166-2.923-1.419-5.776-1.419h-8.507v12.059h-7.924v-33.154h18.227c4.05 0 7.034.107 9.596 1.588 2.507 1.481 4.01 3.643 4.01 7.341zm12.682 24.225h-8.086v-33.154h8.086v33.154zm93.808 0h-11.23l-15.021-24.884v24.884h-16.139l-3.084-7.395h-16.462l-2.992 7.395h-9.273c-3.852 0-8.729-.852-11.491-3.667-2.785-2.815-4.234-6.628-4.234-12.657 0-4.917.866-9.412 4.272-12.964 2.562-2.646 6.574-3.866 12.035-3.866h7.672v7.104h-7.511c-2.892 0-4.525.43-6.098 1.964-1.351 1.396-2.278 4.035-2.278 7.51 0 3.552.706 6.113 2.179 7.786 1.22 1.312 3.437 1.71 5.523 1.71h3.559l11.169-26.073h11.874l13.417 31.359v-31.359h12.066l13.93 23.09v-23.09h8.117v33.153zm-261.757 6.512h13.54l3.053-7.364h6.835l3.045 7.364h26.641v-5.63l2.378 5.654h13.83l2.378-5.738v5.714h66.208l-.031-12.088h1.281c.897.031 1.159.114 1.159 1.595v10.493h34.243v-2.814c2.762 1.48 7.058 2.814 12.711 2.814h14.406l3.083-7.364h6.835l3.015 7.364h27.761v-6.995l4.204 6.995h22.246v-46.24h-22.016v5.461l-3.083-5.461h-22.591v5.461l-2.831-5.461h-30.515c-5.108 0-9.598.713-13.225 2.7v-2.7h-21.058v2.7c-2.308-2.048-5.453-2.7-8.95-2.7h-76.933l-5.162 11.943-5.301-11.943h-24.232v5.461l-2.662-5.461h-20.666l-9.597 21.985v24.255zM289.584 175.315h-14.443c-1.442 0-2.4.054-3.207.599-.836.537-1.158 1.334-1.158 2.386 0 1.251.706 2.102 1.733 2.47.836.291 1.734.376 3.054.376l4.295.115c4.334.107 7.227.852 8.991 2.669.321.253.514.537.735.821m0 12.427c-1.925 2.815-5.676 4.242-10.754 4.242h-15.304v-7.111h15.242c1.512 0 2.57-.199 3.207-.821.552-.513.937-1.258.937-2.163 0-.966-.385-1.733-.968-2.193-.575-.506-1.412-.736-2.792-.736-7.441-.253-16.724.23-16.724-10.264 0-4.81 3.054-9.873 11.37-9.873h15.785v-6.598h-14.666c-4.426 0-7.641 1.06-9.918 2.708v-2.708h-21.693c-3.469 0-7.541.86-9.467 2.708v-2.708h-38.738v2.708c-3.083-2.224-8.285-2.708-10.686-2.708h-25.552v2.708c-2.439-2.362-7.863-2.708-11.169-2.708h-28.597l-6.544 7.082-6.129-7.082h-42.718v46.272h41.914l6.743-7.194 6.352 7.194 25.836.023v-10.885h2.54c3.428.053 7.471-.085 11.038-1.627v12.488h21.31v-12.06h1.028c1.312 0 1.441.054 1.441 1.365v10.694h64.736c4.11 0 8.406-1.052 10.785-2.961v2.961h20.534c4.273 0 8.446-.599 11.621-2.133v-8.62zm-31.611-13.248c1.543 1.597 2.37 3.613 2.37 7.026 0 7.134-4.457 10.464-12.449 10.464h-15.435v-7.111h15.373c1.503 0 2.569-.199 3.237-.821.545-.513.936-1.258.936-2.163 0-.966-.423-1.733-.967-2.193-.606-.506-1.442-.736-2.822-.736-7.411-.253-16.692.23-16.692-10.264 0-4.81 3.022-9.873 11.33-9.873h15.887v7.058h-14.537c-1.441 0-2.378.054-3.175.599-.868.537-1.19 1.334-1.19 2.386 0 1.251.737 2.102 1.734 2.47.836.291 1.734.376 3.084.376l4.266.115c4.302.105 7.255.849 9.05 2.667zm-71.508-2.048c-1.06.629-2.371.683-3.913.683h-9.627v-7.448h9.758c1.411 0 2.823.03 3.782.599 1.027.537 1.641 1.564 1.641 2.983s-.614 2.562-1.641 3.183zm4.786 4.127c1.764.651 3.206 1.818 3.882 2.784 1.119 1.619 1.281 3.13 1.313 6.053v6.574h-7.956v-4.149c0-1.995.192-4.949-1.281-6.491-1.158-1.188-2.923-1.472-5.814-1.472h-8.469v12.112h-7.963v-33.162h18.296c4.012 0 6.934.177 9.535 1.565 2.501 1.511 4.074 3.581 4.074 7.364-.001 5.293-3.531 7.994-5.617 8.822zm10.011-17.751h26.449v6.858h-18.557v6.029h18.104v6.766h-18.104v6.598l18.557.03v6.881h-26.449v-33.162zm-53.467 15.304h-10.241v-8.445h10.333c2.861 0 4.847 1.166 4.847 4.066 0 2.868-1.894 4.379-4.939 4.379zm-18.134 14.842l-12.167-13.508 12.167-13.079v26.587zm-31.421-3.895h-19.484v-6.598h17.398v-6.766h-17.398v-6.029h19.868l8.668 9.664-9.052 9.729zm63.002-15.326c0 9.212-6.873 11.114-13.8 11.114h-9.888v11.123h-15.403l-9.758-10.978-10.141 10.978h-31.39v-33.162h31.873l9.75 10.87 10.08-10.87h25.322c6.289 0 13.355 1.741 13.355 10.925z"/></svg>