<svg style="position: absolute; width: 0; height: 0;" width="0" height="0" version="1.1" xmlns="http://www.w3.org/2000/svg" xmlns:xlink="http://www.w3.org/1999/xlink">
<defs>
<symbol id="icon-grapes" viewBox="0 0 22 32">
<title>grapes</title>
<path class="path1" d="M7.051 14.373c0-1.953-1.573-3.525-3.525-3.525s-3.525 1.573-3.525 3.525 1.573 3.525 3.525 3.525 3.525-1.573 3.525-3.525zM3.525 16.814c-1.356 0-2.441-1.085-2.441-2.441s1.085-2.441 2.441-2.441c1.356 0 2.441 1.085 2.441 2.441s-1.085 2.441-2.441 2.441zM11.119 10.847c-1.953 0-3.525 1.573-3.525 3.525s1.573 3.525 3.525 3.525 3.525-1.573 3.525-3.525-1.573-3.525-3.525-3.525zM11.119 16.814c-1.356 0-2.441-1.085-2.441-2.441s1.085-2.441 2.441-2.441c1.356 0 2.441 1.085 2.441 2.441s-1.085 2.441-2.441 2.441zM11.119 24.949c-1.953 0-3.525 1.573-3.525 3.525s1.573 3.525 3.525 3.525 3.525-1.573 3.525-3.525-1.573-3.525-3.525-3.525zM11.119 30.915c-1.356 0-2.441-1.085-2.441-2.441s1.085-2.441 2.441-2.441c1.356 0 2.441 1.085 2.441 2.441s-1.085 2.441-2.441 2.441zM18.712 10.847c-1.953 0-3.525 1.573-3.525 3.525s1.573 3.525 3.525 3.525 3.525-1.573 3.525-3.525-1.573-3.525-3.525-3.525zM18.712 16.814c-1.356 0-2.441-1.085-2.441-2.441s1.085-2.441 2.441-2.441c1.356 0 2.441 1.085 2.441 2.441s-1.085 2.441-2.441 2.441zM10.847 21.424c0-1.953-1.573-3.525-3.525-3.525s-3.525 1.573-3.525 3.525 1.573 3.525 3.525 3.525 3.525-1.573 3.525-3.525zM7.322 23.864c-1.356 0-2.441-1.085-2.441-2.441s1.085-2.441 2.441-2.441c1.356 0 2.441 1.085 2.441 2.441s-1.085 2.441-2.441 2.441zM14.915 17.898c-1.953 0-3.525 1.573-3.525 3.525s1.573 3.525 3.525 3.525 3.525-1.573 3.525-3.525-1.573-3.525-3.525-3.525zM14.915 23.864c-1.356 0-2.441-1.085-2.441-2.441s1.085-2.441 2.441-2.441c1.356 0 2.441 1.085 2.441 2.441s-1.085 2.441-2.441 2.441zM8.19 10.088c0.054 0 0.054 0 0 0 0.054 0 0.054 0 0 0 0.271 0 0.488 0.054 0.705 0.054 0.434 0 0.759-0.054 0.922-0.054 0.054 0 0.054 0 0.108 0 0.217-0.054 0.38-0.054 0.542-0.108 0.217-0.054 0.38-0.054 0.651-0.054 0.325 0 0.542 0.054 0.814 0.108 0.108 0 0.217 0.054 0.38 0.054 0.325 0.054 0.651 0.108 1.030 0.108 0.271 0 0.542 0 0.868-0.054 0.054 0 0.163 0 0.217-0.054 0.054 0 0.054 0 0.108 0 0 0 0 0 0.054 0 1.030-0.163 2.17-0.651 3.2-1.681 2.224-2.224 1.736-5.153 1.681-5.478-0.054-0.217-0.217-0.38-0.434-0.434-0.108 0-0.488-0.108-1.030-0.108-1.193 0-2.983 0.325-4.447 1.79-1.627 1.627-1.79 3.634-1.736 4.719-0.163-0.054-0.38-0.054-0.651-0.054s-0.488 0.054-0.705 0.054c-0.542-0.597-1.41-2.007-1.41-3.688 0-2.061 1.302-3.417 1.898-3.905 0.488 0.434 1.085 1.030 1.464 1.898 0.108 0.271 0.434 0.38 0.705 0.271s0.38-0.434 0.271-0.705c-0.597-1.302-1.464-2.115-2.115-2.603-0.163-0.108-0.434-0.108-0.597 0-0.271 0.163-2.658 1.898-2.658 5.044 0 1.573 0.597 2.929 1.247 3.851-0.271 0-0.542 0-0.814 0-0.922-0.108-2.115-0.434-3.146-1.41-1.519-1.519-1.573-3.363-1.519-4.176 0.597-0.054 1.681-0.054 2.82 0.488 0.271 0.108 0.597 0 0.705-0.271s0-0.597-0.271-0.705c-1.79-0.868-3.634-0.542-3.797-0.542-0.271 0.054-0.434 0.217-0.434 0.434-0.054 0.325-0.542 3.254 1.681 5.478 1.193 1.247 2.603 1.627 3.688 1.736zM14.264 4.881c1.193-1.193 2.658-1.464 3.688-1.464 0.163 0 0.325 0 0.434 0 0.054 0.814 0 2.658-1.41 4.122-0.868 0.868-1.898 1.247-2.766 1.41-0.054 0-0.108 0-0.108 0-0.271 0.054-0.542 0.054-0.759 0.054v0c-0.163 0-0.325 0-0.434 0-0.108-0.759-0.108-2.658 1.356-4.122z"></path>
</symbol>
<symbol id="icon-star" viewBox="0 0 32 32">
<title>star</title>
<path class="path1" d="M15.998 0.782l-4.942 10.018-11.056 1.608 7.998 7.796-1.888 11.014 9.888-5.198 9.888 5.198-1.882-11.014 7.996-7.796-11.056-1.608z"></path>
</symbol>
<symbol id="icon-lists" viewBox="0 0 32 32">
<title>lists</title>
<path class="path1" d="M3.040 4.96h26.080v1.6h-26.080v-1.6z"></path>
<path class="path2" d="M3.040 25.44h26.080v1.6h-26.080v-1.6z"></path>
<path class="path3" d="M3.040 18.56h26.080v1.6h-26.080v-1.6z"></path>
<path class="path4" d="M3.040 11.84h26.080v1.6h-26.080v-1.6z"></path>
</symbol>
<symbol id="icon-wines" viewBox="0 0 32 32">
<title>wines</title>
<path class="path1" d="M16.8 22.080c4.96-0.32 8.8-4.48 8.8-9.44 0-3.36-0.32-7.040-2.080-10.72h-15.2c-1.76 3.52-1.76 10.56-1.76 10.56 0 4.96 3.84 8.96 8.64 9.44v6.56h-6.4v1.6h14.4v-1.6h-6.4v-6.4zM8.16 12.48c0-1.6 0.32-6.24 1.28-9.12h12.96c1.28 3.36 1.44 6.72 1.44 9.12 0 4.32-3.52 7.84-7.84 7.84-4.32 0.16-7.84-3.36-7.84-7.84z"></path>
</symbol>
<symbol id="icon-restaurant" viewBox="0 0 32 32">
<title>restaurant</title>
<path class="path1" d="M4.8 6.24h22.4v1.6h-22.4v-1.6z"></path>
<path class="path2" d="M16 2.56c1.6 0 2.88 1.28 2.88 2.88h1.6c0-2.56-2.080-4.48-4.48-4.48s-4.64 2.080-4.64 4.64h1.6c0-1.6 1.44-3.040 3.040-3.040z"></path>
<path class="path3" d="M27.2 8.8v0c-5.44 0-17.76 0-22.4 0v0c-2.56 0-4.48 2.080-4.48 4.48s2.080 4.48 4.48 4.48v9.44c0 2.080 1.28 3.68 3.040 3.68h16.48c1.6 0 3.040-1.6 3.040-3.68v-9.44c2.56 0 4.48-2.080 4.48-4.48s-2.24-4.48-4.64-4.48zM4.8 16.32c-1.6 0-2.88-1.28-2.88-2.88s1.28-3.040 2.88-3.040v5.92zM25.6 27.36c0 1.28-0.8 2.080-1.44 2.080h-16.48c-0.64 0-1.44-0.8-1.44-2.080v-16.96h19.2v16.96zM27.2 16.32v-5.92c1.6 0 2.88 1.28 2.88 2.88s-1.28 3.040-2.88 3.040z"></path>
</symbol>
<symbol id="icon-articles" viewBox="0 0 32 32">
<title>articles</title>
<path class="path1" d="M15.040 6.24h13.92v1.6h-13.92v-1.6z"></path>
<path class="path2" d="M15.040 11.2h13.92v1.6h-13.92v-1.6z"></path>
<path class="path3" d="M3.040 14.080h8.64v-8.64h-8.64v8.64zM4.64 7.040h5.44v5.44h-5.44v-5.44z"></path>
<path class="path4" d="M15.040 19.2h13.92v1.6h-13.92v-1.6z"></path>
<path class="path5" d="M15.040 24h13.92v1.6h-13.92v-1.6z"></path>
<path class="path6" d="M3.040 27.040h8.64v-8.64h-8.64v8.64zM4.64 19.84h5.44v5.44h-5.44v-5.44z"></path>
</symbol>
<symbol id="icon-play" viewBox="0 0 32 32">
<title>play</title>
<path class="path1" d="M6 4l20 12-20 12z"></path>
</symbol>
<symbol id="icon-x" viewBox="0 0 32 32">
<title>x</title>
<path class="path1" d="M32.002 29.67l-13.671-13.673 13.667-13.667-2.33-2.33-13.667 13.667-13.667-13.667-2.33 2.33 13.667 13.667-13.671 13.673 2.328 2.33 13.673-13.673 13.673 13.673z"></path>
</symbol>
<symbol id="icon-pin" viewBox="0 0 32 32">
<title>pin</title>
<path class="path1" d="M16 0c-6.6 0-12 5.4-12 12 0 2.2 0.6 4.2 1.6 6v0l10.4 14 10.4-14c1-1.8 1.6-3.8 1.6-6 0-6.6-5.4-12-12-12zM24 18l-8 10.6-8-10.6c-1.2-1.6-2-3.8-2-6 0-5.6 4.4-10 10-10s10 4.4 10 10c0 2.2-0.8 4.4-2 6v0z"></path>
<path class="path2" d="M16 6c-3.4 0-6 2.6-6 6s2.6 6 6 6 6-2.6 6-6c0-3.4-2.6-6-6-6zM16 16c-2.2 0-4-1.8-4-4s1.8-4 4-4 4 1.8 4 4-1.8 4-4 4z"></path>
</symbol>
<symbol id="icon-phone" viewBox="0 0 32 32">
<title>phone</title>
<path class="path1" d="M4 12h6c1.2 0 2-0.8 2-2v-2h8v2c0 1.2 0.8 2 2 2h6c1.2 0 2-0.8 2-2v-4c0-3.4-2.6-6-6-6h-16c-3.4 0-6 2.6-6 6v4c0 1.2 0.8 2 2 2zM4 6c0-2.2 1.8-4 4-4h16c2.2 0 4 1.8 4 4v4h-6v-4h-12v4h-6v-4z"></path>
<path class="path2" d="M8 20c0 4.4 3.6 8 8 8s8-3.6 8-8-3.6-8-8-8-8 3.6-8 8zM22 20c0 3.4-2.6 6-6 6s-6-2.6-6-6 2.6-6 6-6c3.4 0 6 2.6 6 6z"></path>
<path class="path3" d="M26 14h-2c0.4 0.6 0.8 1.2 1.2 2h0.8c2.2 0 4 1.8 4 4v10h-28v-10c0-2.2 1.8-4 4-4h0.8c0.4-0.8 0.8-1.4 1.2-2h-2c-3.4 0-6 2.6-6 6v10c0 1.2 0.8 2 2 2h28c1.2 0 2-0.8 2-2v-10c0-3.4-2.6-6-6-6z"></path>
</symbol>
<symbol id="icon-web" viewBox="0 0 32 32">
<title>web</title>
<path class="path1" d="M30 0h-28c-1.2 0-2 0.8-2 2v20c0 1.2 0.8 2 2 2h12v6h-8c-0.6 0-1 0.4-1 1s0.4 1 1 1h20c0.6 0 1-0.4 1-1s-0.4-1-1-1h-8v-6h12c1.2 0 2-0.8 2-2v-20c0-1.2-0.8-2-2-2zM30 22h-28v-20h28v20z"></path>
</symbol>
<symbol id="icon-clock" viewBox="0 0 32 32">
<title>clock</title>
<path class="path1" d="M16 0c-8.8 0-16 7.2-16 16s7.2 16 16 16c8.8 0 16-7.2 16-16s-7.2-16-16-16zM16 30c-7.8 0-14-6.2-14-14s6.2-14 14-14c7.8 0 14 6.2 14 14s-6.2 14-14 14z"></path>
<path class="path2" d="M23 16h-7v-11c0-0.6-0.4-1-1-1s-1 0.4-1 1v12c0 0.6 0.4 1 1 1h8c0.6 0 1-0.4 1-1s-0.4-1-1-1z"></path>
</symbol>
<symbol id="icon-search" viewBox="0 0 32 32">
<title>search</title>
<path class="path1" d="M31.322 28.61l-9.627-9.627c1.356-2.034 2.305-4.339 2.305-7.051 0-6.644-5.424-12.068-12.068-12.068s-11.932 5.559-11.932 12.203 5.424 12.068 12.068 12.068c2.576 0 5.017-0.814 7.051-2.305l9.627 9.627c0.814 0.814 2.034 0.814 2.712 0s0.678-2.034-0.136-2.847zM12.068 21.966c-5.559 0-10.034-4.475-10.034-10.034s4.475-10.034 10.034-10.034 10.034 4.475 10.034 10.034-4.61 10.034-10.034 10.034z"></path>
</symbol>
<symbol id="icon-arrow-down" viewBox="0 0 32 32">
<title>arrow-down</title>
<path class="path1" d="M14.857 0v22.171h-4.571l5.714 9.829 5.714-9.829h-4.571v-22.171z"></path>
</symbol>
<symbol id="icon-arrow-up" viewBox="0 0 32 32">
<title>arrow-up</title>
<path class="path1" d="M17.143 32v-22.171h4.571l-5.714-9.829-5.714 9.829h4.571v22.171z"></path>
</symbol>
<symbol id="icon-arrow-left" viewBox="0 0 56 32">
<title>arrow-left</title>
<path class="path1" d="M56.2 15h-47.6v-4l-8.6 5 8.6 5v-4h47.6z"></path>
</symbol>
<symbol id="icon-arrow-right" viewBox="0 0 56 32">
<title>arrow-right</title>
<path class="path1" d="M0 17h47.6v4l8.6-5-8.6-5v4h-47.6z"></path>
</symbol>
<symbol id="icon-facebook" viewBox="0 0 32 32">
<title>facebook</title>
<path class="path1" d="M22.872 0.322h-3.221c0 0-6.658-0.43-6.658 6.443 0 1.503 0 4.725 0 4.725h-4.51v3.866h4.51v16.537h4.51v-16.537h4.94l1.074-3.866h-6.013v-4.94c0 0 0-1.933 2.148-1.933h3.221v-4.295z"></path>
</symbol>
<symbol id="icon-pinterest" viewBox="0 0 32 32">
<title>pinterest</title>
<path class="path1" d="M16.865 0c-8.865 0-13.189 6.27-13.189 11.459 0 3.243 1.297 6.054 3.892 6.919 0.432 0.216 0.865 0 0.865-0.432 0-0.216 0.432-1.081 0.649-1.514s0-0.649-0.216-1.081c-1.081-0.649-1.514-1.514-1.514-3.243 0-5.189 3.243-9.081 8.865-9.081 4.973 0 7.784 3.027 7.784 7.135 0 5.189-2.378 9.513-5.838 9.513-1.946 0-3.459-1.514-3.027-3.459 0.649-2.378 1.73-4.757 1.73-6.486 0-1.297-0.865-2.378-2.595-2.378-1.946 0-3.459 1.946-3.459 4.541 0 1.73 0.649 2.595 0.649 2.595s-1.946 8.865-2.378 10.378c-0.649 3.027 0 6.486 0 6.919 0 0.216 0.216 0.216 0.432 0s2.595-3.027 3.243-6.054c0.216-0.865 1.297-4.973 1.297-4.973 0.649 1.297 2.595 1.946 4.541 1.946 6.054 0 9.946-4.973 9.946-12.324 0-5.189-4.757-10.378-11.676-10.378z"></path>
</symbol>
<symbol id="icon-twitter" viewBox="0 0 32 32">
<title>twitter</title>
<path class="path1" d="M32 6.137c-1.096 0.438-2.411 0.877-3.726 1.096 1.315-0.877 2.411-2.192 2.849-3.726-1.096 0.658-2.63 1.315-4.164 1.534-1.315-1.315-2.849-1.973-4.822-1.973-3.726 0-6.575 2.849-6.575 6.575 0 0.438 0 1.096 0.219 1.534-5.479-0.438-10.301-3.069-13.589-7.014-0.658 0.877-0.877 2.192-0.877 3.288 0 2.192 1.096 4.384 2.849 5.479-1.096 0-2.192-0.438-3.068-0.877 0 0 0 0 0 0 0 3.288 2.192 5.918 5.26 6.356-0.438 0.438-1.096 0.438-1.534 0.438s-0.877 0-1.315-0.219c0.877 2.63 3.288 4.603 6.137 4.603-2.192 1.753-5.041 2.849-8.11 2.849-0.438 0-1.096 0-1.534 0 2.849 1.973 6.356 2.849 10.082 2.849 12.055 0 18.849-10.082 18.849-18.63 0-0.219 0-0.658 0-0.877 1.096-0.877 2.192-1.973 3.069-3.288z"></path>
</symbol>
<symbol id="icon-g-plus" viewBox="0 0 32 32">
<title>g-plus</title>
<path class="path1" d="M20.324 0c0 0-6.919 0-9.514 0-4.541 0-8.649 3.459-8.649 7.351s2.595 7.135 7.135 7.135c0.216 0 0.649 0 0.865 0-0.216 0.649-0.432 1.081-0.432 1.73 0 1.081 0.649 1.73 1.297 2.378-0.649 0-1.081 0-1.73 0-5.405 0-9.297 1.73-9.297 7.135 0 3.459 4.541 6.054 10.162 6.054 6.27 0 10.162-3.243 10.162-7.135 0-2.811-0.649-4.324-3.676-6.486-0.865-0.432-2.811-1.946-2.811-2.811 0-1.081 0.216-1.514 1.946-2.811s2.811-3.027 2.811-4.973c0-2.162-0.865-4.324-2.595-5.405h2.378l1.946-2.162zM16.649 24.216c0 0.216 0.216 0.649 0.216 0.865 0 2.595-1.73 4.324-6.703 4.324-3.459 0-6.054-1.946-6.054-4.541 0-2.378 2.811-3.676 6.27-3.676 1.297 0 5.189 0 6.27 3.027zM11.027 12.973c-2.378 0-4.757-2.162-5.189-5.405-0.216-3.027 1.946-5.189 4.324-5.189s3.892 2.378 4.324 5.622c0.432 3.027-0.865 4.973-3.459 4.973z"></path>
<path class="path2" d="M27.459 4.541v-4.541h-1.514v4.541h-4.541v1.513h4.541v4.541h1.514v-4.541h4.541v-1.513z"></path>
</symbol>
<symbol id="icon-next" viewBox="0 0 32 32">
<title>next</title>
<path class="path1" d="M19.4 15l-6.4-6-1.6 1.4 6.2 5.6-6.2 5.6 1.6 1.4 6.4-6 1.2-1z"></path>
</symbol>
<symbol id="icon-prev" viewBox="0 0 32 32">
<title>prev</title>
<path class="path1" d="M12.6 17l6.4 6 1.6-1.4-6.2-5.6 6.2-5.6-1.6-1.4-6.4 6-1.2 1z"></path>
</symbol>
<symbol id="icon-up" viewBox="0 0 32 32">
<title>up</title>
<path class="path1" d="M15 12.6l-6 6.4 1.4 1.6 5.6-6.2 5.6 6.2 1.4-1.6-6-6.4-1-1.2z"></path>
</symbol>
<symbol id="icon-bottom" viewBox="0 0 32 32">
<title>bottom</title>
<path class="path1" d="M17 19.4l6-6.4-1.4-1.6-5.6 6.2-5.6-6.2-1.4 1.6 6 6.4 1 1.2z"></path>
</symbol>
</defs>
</svg>
